HIERARCHY
ROOT Hips
{
 OFFSET 0.000000 0.000000 0.000000
 CHANNELS 6 Xposition Yposition Zposition Yrotation Xrotation Zrotation
 JOINT Chest
 {
  OFFSET 0.000000 9.585900 0.002600
  CHANNELS 3 Yrotation Xrotation Zrotation
  JOINT Chest2
  {
   OFFSET 0.000000 9.601200 -0.005300
   CHANNELS 3 Yrotation Xrotation Zrotation
   JOINT Chest3
   {
    OFFSET 0.000000 9.561800 0.000000
    CHANNELS 3 Yrotation Xrotation Zrotation
    JOINT Chest4
    {
     OFFSET 0.000000 9.552100 0.000000
     CHANNELS 3 Yrotation Xrotation Zrotation
     JOINT Neck
     {
      OFFSET 0.000000 14.453000 0.000000
      CHANNELS 3 Yrotation Xrotation Zrotation
      JOINT Head
      {
       OFFSET 0.000000 8.936500 -0.011300
       CHANNELS 3 Yrotation Xrotation Zrotation
       End Site
       {
        OFFSET 0.000000 17.073600 -0.006000
       }
      }
     }
     JOINT RightCollar
     {
      OFFSET -2.921100 9.558500 0.000000
      CHANNELS 3 Yrotation Xrotation Zrotation
      JOINT RightShoulder
      {
       OFFSET -13.519700 0.000000 0.000000
       CHANNELS 3 Yrotation Xrotation Zrotation
       JOINT RightElbow
       {
        OFFSET 0.000000 -29.696600 0.000000
        CHANNELS 3 Yrotation Xrotation Zrotation
        JOINT RightWrist
        {
         OFFSET 0.000000 -24.004700 0.000000
         CHANNELS 3 Yrotation Xrotation Zrotation
         End Site
         {
          OFFSET 0.000000 -17.728500 0.000000
         }
        }
       }
      }
     }
     JOINT LeftCollar
     {
      OFFSET 2.921100 9.558500 0.000000
      CHANNELS 3 Yrotation Xrotation Zrotation
      JOINT LeftShoulder
      {
       OFFSET 13.519700 0.000000 0.000000
       CHANNELS 3 Yrotation Xrotation Zrotation
       JOINT LeftElbow
       {
        OFFSET 0.000000 -29.696600 0.000000
        CHANNELS 3 Yrotation Xrotation Zrotation
        JOINT LeftWrist
        {
         OFFSET 0.000000 -24.004700 0.000000
         CHANNELS 3 Yrotation Xrotation Zrotation
         End Site
         {
          OFFSET 0.000000 -17.728500 0.000000
         }
        }
       }
      }
     }
    }
   }
  }
 }
 JOINT RightHip
 {
  OFFSET -7.771700 -0.012900 -0.001300
  CHANNELS 3 Yrotation Xrotation Zrotation
  JOINT RightKnee
  {
   OFFSET 0.000000 -40.869800 0.001200
   CHANNELS 3 Yrotation Xrotation Zrotation
   JOINT RightAnkle
   {
    OFFSET 0.000000 -39.717900 0.002100
    CHANNELS 3 Yrotation Xrotation Zrotation
    JOINT RightToe
    {
     OFFSET 0.000000 -4.965400 11.033500
     CHANNELS 3 Yrotation Xrotation Zrotation
     End Site
     {
      OFFSET 0.000000 -1.423100 5.872300
     }
    }
   }
  }
 }
 JOINT LeftHip
 {
  OFFSET 7.771700 -0.012900 -0.001300
  CHANNELS 3 Yrotation Xrotation Zrotation
  JOINT LeftKnee
  {
   OFFSET 0.000000 -40.869800 0.001200
   CHANNELS 3 Yrotation Xrotation Zrotation
   JOINT LeftAnkle
   {
    OFFSET 0.000000 -39.717900 0.002100
    CHANNELS 3 Yrotation Xrotation Zrotation
    JOINT LeftToe
    {
     OFFSET 0.000000 -4.965400 11.033500
     CHANNELS 3 Yrotation Xrotation Zrotation
     End Site
     {
      OFFSET 0.000000 -1.423100 5.872300
     }
    }
   }
  }
 }
}
MOTION
Frames: 16
Frame Time: 0.008333
-22.959430 62.143201 12.050924 176.791988 -52.335712 -1.069936 4.088901 27.416830 0.870553 0.621390 4.768855 0.125912 0.993086 7.553433 0.230056 3.122337 22.146406 1.096499 4.802703 14.963322 0.624362 8.902925 -7.921966 -0.668917 7.198787 5.831726 2.080363 -14.834843 -22.779372 -6.468581 -142.811205 -49.083122 167.201621 9.371223 -1.600921 -25.120176 -9.563885 0.543820 1.579793 -3.398286 -33.312033 5.916204 -158.602909 -58.136718 164.737970 4.636328 -5.119458 2.975750 2.479654 -14.648717 -5.660492 -1.582849 61.620783 -5.239112 1.424358 -8.269348 10.299059 0.248722 -0.539297 0.124180 -3.807313 -11.739922 2.042470 26.135220 76.487176 26.726459 0.905877 -11.636145 -3.426740 0.306333 0.664184 0.150103
-22.956988 62.144570 12.048100 176.781829 -52.359540 -1.078962 4.100931 27.419019 0.881685 0.624250 4.777992 0.130170 0.994359 7.551973 0.230388 3.127805 22.142710 1.098049 4.850715 14.971022 0.623912 8.989506 -7.866772 -0.669072 7.225617 5.842335 2.112772 -14.903050 -23.144997 -6.340606 -143.379206 -49.090637 167.437234 9.421048 -1.659334 -25.087907 -9.568079 0.554067 1.580652 -3.544831 -33.381103 5.987319 -158.776271 -58.278326 164.761243 4.671161 -5.061343 2.846638 2.483019 -14.624774 -5.641254 -1.589328 61.622262 -5.242473 1.427448 -8.266739 10.298786 0.247381 -0.540486 0.119861 -3.809048 -11.714498 2.056122 26.115940 76.497321 26.712603 0.914901 -11.636290 -3.430412 0.328041 0.658402 0.143430
-22.952935 62.144784 12.046324 176.778662 -52.374667 -1.101323 4.120690 27.411051 0.907837 0.635547 4.748558 0.134733 0.985443 7.573234 0.227700 3.129739 22.153954 1.103270 4.954555 14.980325 0.627555 9.018061 -7.798817 -0.651072 7.232027 5.856977 2.128705 -14.954302 -23.501536 -6.192427 -143.924914 -49.091140 167.662725 9.482924 -1.716123 -25.037612 -9.568035 0.546442 1.585191 -3.704377 -33.425824 6.054794 -158.937560 -58.413277 164.789511 4.683652 -4.979737 2.741353 2.470862 -14.609492 -5.616537 -1.582887 61.623121 -5.239786 1.452963 -8.285209 10.308851 0.217300 -0.527644 0.103995 -3.817236 -11.698309 2.074737 26.116518 76.501628 26.717903 0.948768 -11.621908 -3.424935 0.281589 0.643284 0.123734
-22.953228 62.144946 12.044390 176.783278 -52.389619 -1.102264 4.129488 27.404642 0.916738 0.631641 4.741944 0.133325 0.995603 7.536073 0.231564 3.118913 22.181671 1.103666 5.003557 15.017999 0.636768 9.098416 -7.722502 -0.648477 7.311614 5.871803 2.195163 -15.059561 -23.846754 -6.090868 -144.445531 -49.085137 167.878254 9.555663 -1.768487 -24.965195 -9.568354 0.562176 1.583625 -3.877519 -33.468562 6.127554 -159.061283 -58.539452 164.807718 4.673013 -4.883480 2.668873 2.465422 -14.593956 -5.622001 -1.588546 61.625866 -5.241148 1.454206 -8.291176 10.308130 0.218329 -0.523445 0.100979 -3.823392 -11.683604 2.063815 26.126398 76.501754 26.732235 0.961367 -11.619799 -3.428166 0.265278 0.641886 0.118835
-22.952639 62.145103 12.042777 176.779178 -52.404296 -1.100695 4.142241 27.393808 0.926200 0.628474 4.738552 0.135444 0.996456 7.530779 0.232821 3.125034 22.174635 1.103085 5.048838 15.061442 0.652058 9.177923 -7.639780 -0.644691 7.368967 5.898517 2.248393 -15.146845 -24.188381 -5.974217 -144.949675 -49.072905 168.088245 9.638752 -1.812062 -24.873601 -9.568433 0.579048 1.582770 -3.974853 -33.475267 6.162612 -159.222420 -58.623144 164.826054 4.663533 -4.786804 2.626219 2.464437 -14.577754 -5.621675 -1.588492 61.625033 -5.238420 1.452561 -8.297789 10.310428 0.221737 -0.516758 0.095931 -3.823788 -11.668567 2.056914 26.140867 76.500781 26.754586 0.969848 -11.616789 -3.431541 0.268857 0.640060 0.112916
-22.952120 62.144732 12.041872 176.774592 -52.414606 -1.098108 4.147640 27.378025 0.932441 0.631598 4.737877 0.137873 0.993563 7.540841 0.231037 3.130797 22.150421 1.107438 5.098028 15.108289 0.665464 9.255384 -7.553954 -0.639960 7.414666 5.929045 2.289198 -15.208200 -24.518856 -5.859305 -145.452636 -49.052836 168.298361 9.734690 -1.839307 -24.772341 -9.552602 0.568056 1.587065 -4.206778 -33.489129 6.245219 -159.187333 -58.737406 164.762668 4.669144 -4.701063 2.601896 2.464346 -14.566704 -5.623991 -1.575141 61.625197 -5.221658 1.450184 -8.305236 10.307530 0.223523 -0.509694 0.094797 -3.822533 -11.658135 2.051513 26.156604 76.499337 26.776391 0.974640 -11.616356 -3.427957 0.258358 0.642768 0.104772
-22.950940 62.144060 12.041585 176.772333 -52.422061 -1.101448 4.157873 27.362384 0.947003 0.628575 4.747807 0.135600 0.994127 7.537398 0.232378 3.139544 22.126804 1.117196 5.143916 15.157257 0.677196 9.330162 -7.467598 -0.634085 7.455816 5.955316 2.328133 -15.251679 -24.835359 -5.760383 -145.967531 -49.026906 168.512166 9.838371 -1.844593 -24.665400 -9.551481 0.578135 1.583193 -4.419795 -33.515129 6.338929 -159.170921 -58.834786 164.721418 4.683973 -4.634865 2.591461 2.463288 -14.559109 -5.621465 -1.567576 61.624974 -5.206752 1.440592 -8.309255 10.302699 0.225427 -0.504081 0.094239 -3.822391 -11.650565 2.053587 26.160532 76.499421 26.786768 0.976759 -11.618717 -3.430153 0.252679 0.645819 0.101886
-22.948318 62.143741 12.041483 176.772479 -52.431288 -1.115513 4.169638 27.349727 0.969343 0.626916 4.756545 0.134524 1.004561 7.500259 0.245090 3.148693 22.115686 1.134124 5.174304 15.229672 0.683427 9.405902 -7.382658 -0.628436 7.481619 6.000754 2.359427 -15.278825 -25.142678 -5.674483 -146.498614 -49.002380 168.733410 9.937506 -1.836407 -24.555820 -9.562706 0.606381 1.567472 -4.570588 -33.518352 6.407252 -159.249658 -58.895258 164.733645 4.707510 -4.589774 2.597684 2.458927 -14.550172 -5.608415 -1.565313 61.624404 -5.198182 1.437653 -8.308535 10.305122 0.227645 -0.504005 0.090822 -3.825774 -11.641162 2.057712 26.179361 76.497270 26.828590 0.968968 -11.616788 -3.453494 0.270428 0.646194 0.109188
-22.947728 62.143425 12.041544 176.772467 -52.439666 -1.117613 4.175867 27.339924 0.980758 0.627556 4.753184 0.136452 0.999944 7.515114 0.240476 3.159932 22.083149 1.156490 5.199814 15.278622 0.683912 9.498279 -7.297888 -0.620899 7.514543 6.029273 2.388174 -15.287291 -25.445804 -5.596004 -147.041363 -48.980704 168.964476 10.032475 -1.826863 -24.444820 -9.564682 0.620785 1.553560 -4.694733 -33.519637 6.468617 -159.379859 -58.935577 164.780595 4.744013 -4.571020 2.619939 2.450446 -14.541724 -5.616409 -1.538206 61.623408 -5.163139 1.442698 -8.312395 10.301796 0.223564 -0.499946 0.083205 -3.835457 -11.634361 2.042712 26.228041 76.491327 26.882818 1.012335 -11.606797 -3.465889 0.270236 0.644588 0.106436
-22.945992 62.143074 12.042021 176.759296 -52.446502 -1.116475 4.180893 27.329807 0.991445 0.628322 4.750067 0.138375 1.001347 7.510458 0.243459 3.167060 22.086011 1.164617 5.204080 15.304261 0.677611 9.617986 -7.211337 -0.607248 7.558347 6.045287 2.423725 -15.286656 -25.745040 -5.522029 -147.579979 -48.956987 169.199604 10.133767 -1.815109 -24.330182 -9.567233 0.633085 1.540818 -4.749652 -33.521937 6.498535 -159.587608 -58.952125 164.849780 4.794420 -4.584249 2.657222 2.454255 -14.535674 -5.609402 -1.531066 61.621545 -5.151276 1.443183 -8.312681 10.303366 0.221207 -0.497570 0.077679 -3.836481 -11.626553 2.043229 26.250478 76.488271 26.910741 1.030558 -11.605309 -3.474840 0.255471 0.646869 0.109278
-22.945488 62.142920 12.042519 176.749236 -52.453098 -1.110617 4.181416 27.310136 1.007652 0.632284 4.758759 0.132294 0.998106 7.484908 0.258862 3.162958 22.101712 1.159653 5.255393 15.346569 0.686917 9.693592 -7.135638 -0.601838 7.612206 6.068099 2.458501 -15.286951 -26.037993 -5.452037 -148.099368 -48.929427 169.429561 10.246732 -1.794796 -24.213813 -9.554746 0.637410 1.533080 -4.803548 -33.510894 6.511894 -159.822479 -58.964561 164.934572 4.868373 -4.625144 2.707678 2.457271 -14.529420 -5.609375 -1.522281 61.620879 -5.141663 1.444899 -8.315177 10.307987 0.222660 -0.494374 0.075025 -3.836846 -11.619264 2.039303 26.276073 76.484627 26.942126 1.020472 -11.605549 -3.473765 0.249473 0.647534 0.105558
-22.944946 62.142052 12.043814 176.741558 -52.452113 -1.107240 4.185195 27.303399 1.013940 0.628897 4.748608 0.137295 1.000145 7.490082 0.255426 3.162448 22.075093 1.176230 5.352951 15.405118 0.719328 9.725991 -7.066087 -0.611598 7.672416 6.094248 2.493059 -15.286451 -26.322903 -5.385911 -148.600000 -48.903557 169.648724 10.367362 -1.764058 -24.101970 -9.513008 0.639160 1.548605 -4.942527 -33.498650 6.557585 -160.055574 -58.998415 165.067060 4.973706 -4.686109 2.768993 2.458147 -14.531740 -5.608162 -1.520049 61.620049 -5.138731 1.447130 -8.316588 10.311279 0.221270 -0.491754 0.077625 -3.834963 -11.620385 2.039904 26.288317 76.482759 26.957351 1.013981 -11.608645 -3.464798 0.258409 0.651308 0.097855
-22.944013 62.141200 12.045358 176.729499 -52.448766 -1.102923 4.193377 27.294542 1.023595 0.623596 4.727567 0.150176 1.003078 7.505804 0.243709 3.159641 22.062218 1.182395 5.375950 15.434383 0.720686 9.827617 -6.981907 -0.600341 7.704574 6.110837 2.509838 -15.256941 -26.602327 -5.295027 -149.096401 -48.889362 169.863789 10.479240 -1.731822 -24.009006 -9.502184 0.652894 1.542920 -5.012919 -33.492929 6.602812 -160.393235 -59.018365 165.225303 5.102138 -4.756231 2.843340 2.458221 -14.536768 -5.609793 -1.520481 61.617320 -5.129640 1.454737 -8.317639 10.305312 0.221983 -0.487824 0.079421 -3.838390 -11.623166 2.035539 26.337027 76.476850 27.004351 1.041129 -11.610743 -3.471083 0.245206 0.656103 0.096950
-22.941508 62.141748 12.046158 176.724317 -52.453152 -1.113437 4.197900 27.281906 1.053372 0.626433 4.739894 0.136725 0.998429 7.486451 0.252344 3.159789 22.077880 1.175034 5.399555 15.446934 0.729180 9.922544 -6.891733 -0.589146 7.786961 6.092078 2.572312 -15.240363 -26.869095 -5.246355 -149.597034 -48.894152 170.081370 10.567338 -1.714351 -23.944520 -9.492020 0.652489 1.548214 -5.095948 -33.482760 6.663563 -160.823777 -59.049968 165.452043 5.240745 -4.822652 2.935569 2.438204 -14.531519 -5.599415 -1.490862 61.610960 -5.103942 1.462214 -8.322149 10.301957 0.212792 -0.481863 0.075361 -3.848137 -11.616373 2.040456 26.332970 76.477999 27.010875 1.058048 -11.615960 -3.494066 0.243074 0.659332 0.106195
-22.941850 62.142135 12.047027 176.723094 -52.454062 -1.110624 4.197171 27.280136 1.055485 0.626281 4.732178 0.139759 0.999377 7.468331 0.267729 3.155490 22.082716 1.168909 5.486837 15.512558 0.761524 9.938280 -6.826733 -0.596597 7.863212 6.089210 2.626413 -15.204957 -27.126424 -5.198789 -150.082260 -48.914424 170.290612 10.632188 -1.717659 -23.899045 -9.468165 0.647527 1.579241 -5.138399 -33.455507 6.647209 -161.363418 -59.088421 165.719982 5.386896 -4.878348 3.045014 2.429141 -14.529567 -5.603241 -1.477409 61.608378 -5.092698 1.456587 -8.327854 10.300983 0.214553 -0.475613 0.075962 -3.857375 -11.614423 2.033054 26.354095 76.474246 27.031323 1.051254 -11.618474 -3.491003 0.246646 0.662010 0.098983
-22.942197 62.142357 12.048138 176.715790 -52.451900 -1.103827 4.200206 27.275449 1.059501 0.625729 4.726624 0.146357 1.000051 7.468955 0.264387 3.156603 22.071643 1.178816 5.520356 15.563317 0.769345 9.990853 -6.743584 -0.593663 7.924087 6.082825 2.662370 -15.150752 -27.372959 -5.138382 -150.515010 -48.941506 170.473481 10.681417 -1.735543 -23.860275 -9.470037 0.659863 1.567360 -5.151654 -33.450749 6.652155 -161.990406 -59.141847 166.014854 5.543896 -4.924388 3.165860 2.428439 -14.531640 -5.606519 -1.473666 61.606803 -5.086776 1.451080 -8.332817 10.298187 0.216078 -0.470415 0.078364 -3.864612 -11.614503 2.026854 26.376685 76.467754 27.050798 1.051342 -11.620847 -3.494290 0.247551 0.666268 0.097313
